HIERARCHY
ROOT Hips
{
	OFFSET -0.001795 -0.223333 0.028219
	CHANNELS 6 Xposition Yposition Zposition Zrotation Yrotation Xrotation 
	JOINT LeftUpLeg
	{
		OFFSET 0.069520 -0.091406 -0.006815
		CHANNELS 3 Zrotation Yrotation Xrotation
		JOINT LeftLeg
		{
			OFFSET 0.034277 -0.375199 -0.004496
			CHANNELS 3 Zrotation Yrotation Xrotation
			JOINT LeftFoot
			{
				OFFSET -0.013596 -0.397961 -0.043693
				CHANNELS 3 Zrotation Yrotation Xrotation
				JOINT LeftToe
				{
					OFFSET 0.026358 -0.055791 0.119288
					CHANNELS 3 Zrotation Yrotation Xrotation
					End Site
					{
						OFFSET 0.000000 0.000000 0.000000
					}
				}
			}
		}
	}
	JOINT RightUpLeg
	{
		OFFSET -0.067670 -0.090522 -0.004320
		CHANNELS 3 Zrotation Yrotation Xrotation
		JOINT RightLeg
		{
			OFFSET -0.038290 -0.382569 -0.008850
			CHANNELS 3 Zrotation Yrotation Xrotation
			JOINT RightFoot
			{
				OFFSET 0.015774 -0.398415 -0.042312
				CHANNELS 3 Zrotation Yrotation Xrotation
				JOINT RightToe
				{
					OFFSET -0.025372 -0.048144 0.123348
					CHANNELS 3 Zrotation Yrotation Xrotation
					End Site
					{
						OFFSET 0.000000 0.000000 0.000000
					}
				}
			}
		}
	}
	JOINT Spine
	{
		OFFSET -0.002533 0.108963 -0.026696
		CHANNELS 3 Zrotation Yrotation Xrotation
		JOINT Spine1
		{
			OFFSET 0.005487 0.135180 0.001092
			CHANNELS 3 Zrotation Yrotation Xrotation
			JOINT Spine2
			{
				OFFSET 0.001457 0.052922 0.025425
				CHANNELS 3 Zrotation Yrotation Xrotation
				JOINT Neck
				{
					OFFSET -0.002778 0.213870 -0.042857
					CHANNELS 3 Zrotation Yrotation Xrotation
					JOINT Head
					{
						OFFSET 0.005152 0.064970 0.051349
						CHANNELS 3 Zrotation Yrotation Xrotation
						End Site
						{
							OFFSET 0.000000 0.000000 0.000000
						}
					}
				}
				JOINT LeftShoulder
				{
					OFFSET 0.078845 0.121749 -0.034090
					CHANNELS 3 Zrotation Yrotation Xrotation
					JOINT LeftArm
					{
						OFFSET 0.090977 0.030469 -0.008868
						CHANNELS 3 Zrotation Yrotation Xrotation
						JOINT LeftForeArm
						{
							OFFSET 0.259612 -0.012772 -0.027456
							CHANNELS 3 Zrotation Yrotation Xrotation
							JOINT LeftHand
							{
								OFFSET 0.249234 0.008986 -0.001171
								CHANNELS 3 Zrotation Yrotation Xrotation
								End Site
								{
									OFFSET 0.000000 0.000000 0.000000
								}
							}
						}
					}
				}
				JOINT RightShoulder
				{
					OFFSET -0.081759 0.118833 -0.038615
					CHANNELS 3 Zrotation Yrotation Xrotation
					JOINT RightArm
					{
						OFFSET -0.096012 0.032551 -0.009143
						CHANNELS 3 Zrotation Yrotation Xrotation
						JOINT RightForeArm
						{
							OFFSET -0.253742 -0.013329 -0.021401
							CHANNELS 3 Zrotation Yrotation Xrotation
							JOINT RightHand
							{
								OFFSET -0.255298 0.007772 -0.005559
								CHANNELS 3 Zrotation Yrotation Xrotation
								End Site
								{
									OFFSET 0.000000 0.000000 0.000000
								}
							}
						}
					}
				}
			}
		}
	}
}
MOTION
Frames: 16
Frame Time: 0.050000
0.000000 0.959843 0.000000 -0.398698 -7.032052 -0.552000 2.327785 0.092365 1.101835 -1.343109 0.211485 -2.142270 4.449093 12.304404 22.235325 0.000000 0.000000 0.000000 -2.655556 0.142466 -0.616057 3.234920 -0.279864 0.714908 -4.505054 -15.834812 22.657167 0.000000 0.000000 0.000000 5.359251 -0.529094 5.917024 -5.265118 1.761140 -24.898509 -1.058383 7.279682 27.825107 9.766664 -3.065418 -29.512069 0.000000 0.000000 0.000000 -19.653240 -7.406118 2.341259 -45.390863 -5.625070 -5.399442 -17.623495 -31.033137 6.282216 0.000000 0.000000 0.000000 26.390959 -2.150011 -2.053088 48.465591 7.257272 -4.512148 20.544965 29.261732 6.732596 0.000000 0.000000 0.000000 
0.000149 0.959255 -0.000045 -0.426946 -7.589876 -0.251255 2.862733 0.114208 1.411322 -2.301864 0.330708 -3.136627 4.664065 12.525391 22.355108 0.000000 0.000000 0.000000 -2.963765 0.200739 -1.231198 3.462040 -0.286812 1.410765 -3.522469 -14.368371 21.649982 0.000000 0.000000 0.000000 5.417819 -0.498994 5.466441 -5.910905 1.904304 -24.966758 -0.586021 7.279545 28.003302 10.573814 -3.552174 -29.680675 0.000000 0.000000 0.000000 -19.702775 -7.818879 2.693161 -46.170038 -6.159046 -5.346377 -16.040805 -30.641396 5.803624 0.000000 0.000000 0.000000 26.505338 -2.072516 -2.138915 49.005536 6.514532 -4.814184 20.282300 29.705283 6.768492 0.000000 0.000000 0.000000 
0.000237 0.959090 -0.000383 -0.228062 -6.554266 -0.141087 2.891163 0.040902 0.504883 -2.629145 0.346430 -2.077486 4.183038 11.993535 22.009118 0.000000 0.000000 0.000000 -3.026973 0.212445 -1.441295 3.315543 -0.272790 1.983439 -3.980375 -14.786620 21.029992 0.000000 0.000000 0.000000 5.888893 -0.475397 4.871650 -6.598360 2.097851 -24.532684 -1.015812 6.638200 28.010761 10.294238 -3.445459 -29.548361 0.000000 0.000000 0.000000 -19.550743 -8.812298 3.222884 -45.274968 -5.978184 -5.314956 -16.802059 -30.489113 5.947831 0.000000 0.000000 0.000000 27.036382 -2.033693 -2.134180 48.889219 6.483219 -4.838981 18.490197 29.353929 6.196452 0.000000 0.000000 0.000000 
0.000111 0.958980 -0.000720 -0.141767 -6.493912 -0.215805 2.973945 0.050686 0.643731 -2.911930 0.378103 -2.245062 4.117703 11.917188 22.025542 0.000000 0.000000 0.000000 -3.315852 0.221937 -1.474970 3.858512 -0.330719 1.944460 -4.450636 -15.526617 21.469451 0.000000 0.000000 0.000000 5.895589 -0.471824 4.837507 -6.711153 2.117727 -24.914926 -1.075386 7.082577 28.403807 11.170038 -3.789276 -30.068480 0.000000 0.000000 0.000000 -20.055768 -9.468695 3.466106 -44.695847 -6.238005 -5.165259 -16.358090 -30.863707 5.866076 0.000000 0.000000 0.000000 28.443950 -2.065297 -2.065208 47.827419 6.673529 -4.818034 18.411558 29.065481 6.133357 0.000000 0.000000 0.000000 
0.000004 0.958961 -0.001108 -0.168227 -6.650852 -0.386344 2.854113 0.042457 0.491165 -2.649934 0.345198 -1.650560 4.250160 12.062864 21.966122 0.000000 0.000000 0.000000 -3.329534 0.229002 -1.577278 3.844210 -0.324642 2.244825 -4.299770 -15.379286 21.803308 0.000000 0.000000 0.000000 5.755904 -0.480023 5.045990 -6.485641 2.078467 -24.166089 -1.237937 7.025095 27.601244 10.920405 -3.808167 -29.103752 0.000000 0.000000 0.000000 -19.998392 -9.615183 3.550311 -44.877729 -6.198877 -5.124441 -16.309531 -31.344336 5.950584 0.000000 0.000000 0.000000 28.285542 -1.617788 -1.843219 47.993843 6.818727 -4.672738 18.017066 29.190496 6.033926 0.000000 0.000000 0.000000 
-0.000046 0.959031 -0.001553 -0.172687 -6.469858 -0.515697 2.950686 0.044160 0.518638 -2.777348 0.357516 -1.537585 4.141196 11.943231 21.933635 0.000000 0.000000 0.000000 -3.294980 0.225028 -1.563006 4.031683 -0.346379 2.311722 -4.880206 -16.232964 22.189784 0.000000 0.000000 0.000000 5.674375 -0.487569 5.198804 -6.538201 2.090023 -24.412677 -1.180005 6.799953 27.916446 10.693044 -3.664738 -29.367051 0.000000 0.000000 0.000000 -20.052364 -10.182725 3.906446 -44.781574 -6.220841 -5.141268 -16.083164 -31.749590 5.975986 0.000000 0.000000 0.000000 28.264788 -0.920420 -1.405120 47.747346 7.047535 -4.591391 18.030043 29.075042 5.992563 0.000000 0.000000 0.000000 
-0.000093 0.958984 -0.002099 -0.138982 -6.589628 -0.665774 2.961684 0.056451 0.665280 -2.858093 0.367587 -1.547422 4.188341 11.994615 21.962910 0.000000 0.000000 0.000000 -3.233825 0.216645 -1.466206 3.906575 -0.331366 2.351373 -4.906450 -16.273831 22.067464 0.000000 0.000000 0.000000 5.701680 -0.510368 5.488451 -6.441835 2.074189 -24.038017 -1.344513 6.670735 27.568135 10.799343 -3.751068 -29.323414 0.000000 0.000000 0.000000 -20.144996 -10.569049 4.161234 -44.857692 -6.408095 -5.062177 -15.788365 -31.684521 5.883333 0.000000 0.000000 0.000000 28.360079 -0.389656 -1.149726 47.662280 7.280133 -4.444884 17.849710 29.319125 5.977109 0.000000 0.000000 0.000000 
-0.000156 0.958702 -0.002595 -0.238612 -6.520650 -0.798411 3.051806 0.071071 0.867052 -2.803520 0.362313 -1.689273 4.161741 11.958421 21.838347 0.000000 0.000000 0.000000 -3.016953 0.205639 -1.406932 3.750478 -0.313982 2.477485 -4.991624 -16.381644 22.030752 0.000000 0.000000 0.000000 5.565182 -0.530894 5.833904 -6.156468 2.003360 -23.997040 -1.415311 6.532938 27.512655 10.689552 -3.746443 -29.064370 0.000000 0.000000 0.000000 -20.124747 -11.056321 4.450671 -44.745778 -6.366064 -5.064696 -15.717825 -31.824164 5.889391 0.000000 0.000000 0.000000 28.284122 -0.244367 -1.083527 47.499746 7.263607 -4.424700 18.356848 29.542837 6.153113 0.000000 0.000000 0.000000 
-0.000277 0.958562 -0.002993 -0.286736 -6.646190 -1.012879 3.058158 0.096264 1.188443 -2.712712 0.354545 -1.840962 4.220252 12.020404 21.814270 0.000000 0.000000 0.000000 -2.906556 0.186029 -1.179080 3.746680 -0.313391 2.413745 -5.110801 -16.561417 21.977376 0.000000 0.000000 0.000000 5.560589 -0.553228 6.154809 -6.022458 1.970048 -23.920151 -1.453806 6.401379 27.393617 10.772546 -3.837457 -28.976369 0.000000 0.000000 0.000000 -20.351510 -11.319880 4.654043 -44.581964 -6.338262 -5.057780 -15.710292 -31.708805 5.868617 0.000000 0.000000 0.000000 28.340944 0.085702 -0.955613 46.935022 7.164185 -4.392164 18.733721 30.310131 6.409136 0.000000 0.000000 0.000000 
-0.000388 0.958579 -0.003248 -0.325862 -6.624301 -1.195575 3.009944 0.110766 1.372081 -2.532571 0.334586 -1.832783 4.210806 12.010238 21.784631 0.000000 0.000000 0.000000 -2.786222 0.170173 -1.020236 3.652625 -0.306221 2.212555 -5.347078 -16.968225 22.680138 0.000000 0.000000 0.000000 5.476616 -0.567332 6.418686 -5.832301 1.926344 -23.785068 -1.540328 6.303025 27.173685 10.791389 -3.861859 -28.905681 0.000000 0.000000 0.000000 -20.213405 -11.673102 4.855548 -44.614595 -6.162766 -5.103562 -15.738412 -31.652327 5.863079 0.000000 0.000000 0.000000 28.351272 0.183890 -0.928229 46.695500 6.712063 -4.509537 19.367557 30.818036 6.695188 0.000000 0.000000 0.000000 
-0.000461 0.958793 -0.003396 -0.384118 -6.600331 -1.322223 3.145621 0.118585 1.482356 -2.640918 0.346094 -1.790628 4.172992 11.970728 21.818909 0.000000 0.000000 0.000000 -2.703521 0.159480 -0.916351 3.591609 -0.300911 2.154004 -5.354173 -17.017834 23.104811 0.000000 0.000000 0.000000 5.445035 -0.573499 6.540135 -5.771317 1.913635 -23.690832 -1.526105 6.223845 27.201362 10.830108 -3.901962 -28.883293 0.000000 0.000000 0.000000 -20.305234 -11.808488 4.950626 -44.355780 -5.868313 -5.185397 -15.525533 -31.517146 5.769786 0.000000 0.000000 0.000000 28.406072 0.104824 -1.005917 46.245688 6.201976 -4.659943 19.975355 31.117802 6.927057 0.000000 0.000000 0.000000 
-0.000465 0.958913 -0.003445 -0.516015 -6.598605 -1.293404 3.300797 0.113992 1.434308 -2.658024 0.347220 -1.738296 4.175997 11.972943 21.806499 0.000000 0.000000 0.000000 -2.715992 0.160676 -0.927036 3.567043 -0.299217 2.086132 -4.780338 -16.256488 23.441941 0.000000 0.000000 0.000000 5.607843 -0.574614 6.435917 -5.642469 1.885462 -23.425362 -1.702968 6.234791 27.061791 10.905222 -3.885946 -29.130145 0.000000 0.000000 0.000000 -20.013992 -11.721084 4.880377 -44.452382 -5.230244 -5.397547 -15.262397 -31.419914 5.670799 0.000000 0.000000 0.000000 28.272476 -0.115569 -1.140776 45.910244 5.551705 -4.848475 21.060344 31.590260 7.355298 0.000000 0.000000 0.000000 
-0.000433 0.959148 -0.003538 -0.667739 -6.775143 -1.285157 3.421519 0.109797 1.360568 -2.597449 0.339525 -1.561932 4.275857 12.087272 21.852282 0.000000 0.000000 0.000000 -2.574104 0.151895 -0.850639 3.459495 -0.289645 1.838236 -4.453029 -15.870399 23.795578 0.000000 0.000000 0.000000 5.609868 -0.576911 6.466036 -5.504722 1.848343 -23.313919 -1.650620 6.389864 27.041588 10.998805 -3.911434 -29.238785 0.000000 0.000000 0.000000 -20.286496 -11.670540 4.846855 -44.034134 -4.635771 -5.544037 -14.759678 -31.243712 5.480015 0.000000 0.000000 0.000000 28.416733 -0.292399 -1.249322 45.229672 4.682208 -5.100281 22.032875 31.994479 7.737199 0.000000 0.000000 0.000000 
-0.000385 0.959316 -0.003731 -0.773145 -6.897950 -1.237610 3.566246 0.101654 1.236077 -2.663374 0.346119 -1.406112 4.341689 12.162511 21.893248 0.000000 0.000000 0.000000 -2.480067 0.157784 -0.956767 3.396501 -0.280844 1.916916 -4.198609 -15.545562 23.857899 0.000000 0.000000 0.000000 5.675633 -0.584755 6.512168 -5.437037 1.828486 -23.315548 -1.645816 6.412642 26.974018 11.040269 -3.946536 -29.183083 0.000000 0.000000 0.000000 -20.274026 -11.336353 4.675158 -44.017487 -4.008378 -5.751546 -14.583593 -30.890628 5.365169 0.000000 0.000000 0.000000 28.323275 -0.463287 -1.376860 44.659984 4.176150 -5.209382 22.936714 32.268849 8.065957 0.000000 0.000000 0.000000 
-0.000308 0.959403 -0.003990 -0.911064 -7.002460 -1.074946 3.615899 0.087535 1.031732 -2.506007 0.327616 -1.335725 4.423850 12.255807 21.905904 0.000000 0.000000 0.000000 -2.412148 0.173775 -1.180448 3.374806 -0.277642 1.909406 -3.867402 -15.144986 24.157149 0.000000 0.000000 0.000000 5.834407 -0.585426 6.385538 -5.519543 1.844925 -23.457832 -1.478280 6.720959 27.108679 10.939054 -3.871642 -29.076446 0.000000 0.000000 0.000000 -20.323035 -10.933307 4.390552 -43.937256 -3.504863 -5.904055 -14.544564 -30.483321 5.265168 0.000000 0.000000 0.000000 28.119526 -0.830481 -1.507632 44.268669 3.808061 -5.331208 24.320036 32.465360 8.557492 0.000000 0.000000 0.000000 
-0.000269 0.959669 -0.004249 -1.041030 -6.838058 -0.936276 3.792023 0.069812 0.800287 -2.550756 0.330786 -1.239971 4.338943 12.165532 21.913174 0.000000 0.000000 0.000000 -2.296174 0.177861 -1.276098 3.432428 -0.284775 1.928626 -3.863832 -15.103287 24.086321 0.000000 0.000000 0.000000 5.946214 -0.584106 6.258918 -5.682301 1.886129 -23.618328 -1.211332 6.798951 27.281714 10.977255 -3.896127 -28.922366 0.000000 0.000000 0.000000 -20.369961 -10.585869 4.149226 -44.002804 -2.688630 -6.181625 -14.405659 -30.642505 5.248252 0.000000 0.000000 0.000000 27.896180 -1.059080 -1.564578 43.868577 3.615865 -5.386091 25.840030 32.932179 9.182840 0.000000 0.000000 0.000000 
